<svg xmlns="http://www.w3.org/2000/svg" viewBox="0 0 2272 922.9" aria-hidden="true"><path fill="#ee0000" stroke="#FFF" stroke-width="1.67" stroke-miterlimit="8.34" d="M58.6 124.3c0 .4-.1.8-.1 1.2-1.4 12.7-21.1 10.3-21.9 23.4-.8 13.2 18.9 16.1 18.7 29 0 .4-.1.8-.1 1.2-1.4 12.7-21.1 10.3-21.9 23.4-.8 13.2 18.9 16.1 18.7 29 0 .4-.1.8-.1 1.2-1.4 12.7-21.1 10.3-21.9 23.5-.8 13.2 18.9 16.1 18.7 29 0 .4-.1.8-.1 1.2-1.4 12.7-21.1 10.3-21.9 23.5-.8 13.2 18.9 16.1 18.7 29 0 .4-.1.8-.1 1.2-1.4 12.7-21.1 10.2-21.9 23.5-.8 13.2 18.9 16.1 18.7 29 0 .4-.1.8-.1 1.2-1.4 12.7-21.1 10.2-21.9 23.4-.8 13.2 18.9 16.1 18.7 29 0 .4-.1.8-.1 1.2-1.4 12.7-21.1 10.2-21.9 23.5-.8 13.2 18.9 16.1 18.7 29 0 .4-.1.8-.1 1.2-1.4 12.7-21.1 10.2-21.9 23.4-.8 13.2 18.9 16.1 18.7 29 0 .4-.1.8-.1 1.2-1.4 12.7-21.1 10.2-21.9 23.4-.8 13.2 18.9 16.2 18.7 29 0 .4-.1.8-.1 1.2-.9 12.7-20.6 10.2-21.4 23.4s18.9 16.2 18.7 29c0 .4-.1.8-.1 1.2-1.4 12.7-21.1 10.2-21.9 23.4-.8 13.2 18.9 16.1 18.7 29 0 .4-.1.8-.1 1.2-1.4 12.7-21 10.3-21.8 23.5-.8 13.2 18.9 16.1 18.7 29-.4 5.7-.7 11.4-1 17.2 247.3 34.1 494.9 61.8 742.6 83.2 1.6-26 24.2-45.2 50.4-43.1 26.2 2.2 46.2 24.9 44.7 50.9 450.1 35.8 900.4 50.7 1349.7 44.5.3-5.7.7-11.4 1-17.1 1.2-13.2 21.1-13.6 21.9-27 .8-13.4-19.1-13.3-18.7-26.4v-.7c1.2-13.2 21.1-13.6 21.9-27 .8-13.4-19.1-13.2-18.7-26.4v-.7c1.2-13.2 21.1-13.6 21.9-27 .8-13.4-19.1-13.3-18.7-26.4v-.7c1.2-13.1 21.1-13.6 21.9-27 .8-13.4-19.1-13.2-18.7-26.4v-.7c1.2-13.2 21.1-13.6 21.9-27.1.8-13.4-19.1-13.2-18.7-26.4v-.7c1.2-13.2 21.1-13.6 21.9-27.1.8-13.4-19.1-13.2-18.7-26.4v-.7c1.2-13.2 21.1-13.6 21.9-27 .8-13.4-19.1-13.3-18.7-26.4v-.7c1.2-13.2 21.1-13.6 21.9-27 .8-13.4-19.1-13.2-18.7-26.4v-.7c1.2-13.2 21.1-13.6 21.9-27.1.8-13.4-19.1-13.2-18.7-26.4v-.7c1.2-13.1 21.1-13.6 21.9-27.1.8-13.4-19.1-13.2-18.7-26.4v-.7c1.2-13.2 21.1-13.6 21.9-27.1.8-13.4-19.1-13.2-18.7-26.4v-.7c1.2-13.2 21.1-13.7 21.9-27.1.8-13.4-19.1-13.2-18.7-26.4v-.7c1.2-13.1 21.1-13.7 21.9-27 .8-13.4-19.1-13.2-18.7-26.4v-.7c1.2-13.2 21.1-13.7 21.9-27.1.8-13.4-19.1-13.2-18.7-26.4.3-5.7.7-11.4 1-17.1-449.1 7.6-899.5-5.7-1349.5-40.1 0 0 0 0 0 0-1.6 26-24.1 45.5-50.4 43.4-26.3-2.1-46.3-25-44.7-51 0 0 0 0 0 0C561.1 61.1 313.4 34.2 66.1.9c-.4 5.7-.7 11.4-1 17.2C63.7 30.8 44 28.4 43.2 41.6c-.8 13.2 18.9 16.1 18.7 29 0 .4-.1.8-.1 1.2-1.4 12.7-21.1 10.3-21.9 23.5-.8 13.2 18.9 16.1 18.7 29h0z"/><path fill="#FFF" d="M809.6 795.4c2.2.2 4.4.4 6.7.6-.7 11.1-1.3 22.2-2 33.3-2.2-.2-4.4-.4-6.7-.6.7-11.1 1.4-22.2 2-33.3zm4.1-66.6c2.2.2 4.4.4 6.7.6-.7 11.1-1.3 22.2-2 33.3-2.2-.2-4.5-.4-6.7-.6.6-11.1 1.3-22.2 2-33.3zm4-66.6c2.2.2 4.4.4 6.7.6-.7 11.1-1.3 22.2-2 33.3-2.2-.2-4.5-.4-6.7-.6.7-11.1 1.3-22.2 2-33.3zm4-66.6c2.2.2 4.4.4 6.7.5-.7 11.1-1.3 22.2-2 33.3-2.2-.2-4.4-.4-6.7-.6.7-11 1.4-22.1 2-33.2zm4.1-66.6c2.2.2 4.4.4 6.7.5-.7 11.1-1.3 22.2-2 33.3-2.2-.2-4.5-.4-6.7-.5.6-11.1 1.3-22.2 2-33.3zm4-66.6c2.2.2 4.4.4 6.7.5-.7 11.1-1.3 22.2-2 33.3-2.2-.2-4.4-.4-6.7-.5.7-11.1 1.3-22.2 2-33.3zm4.1-66.6c2.2.2 4.4.4 6.7.5-.7 11.1-1.3 22.2-2 33.3-2.2-.2-4.4-.4-6.7-.5.6-11.1 1.3-22.2 2-33.3zm4-66.6c2.2.2 4.4.4 6.7.5-.7 11.1-1.3 22.2-2 33.3-2.2-.2-4.5-.4-6.7-.5.6-11.1 1.3-22.2 2-33.3zm4-66.6c2.2.2 4.5.4 6.7.5-.7 11.1-1.3 22.2-2 33.3-2.2-.2-4.4-.4-6.7-.5.7-11.1 1.3-22.2 2-33.3zM846 196c2.2.2 4.4.4 6.7.5-.7 11.1-1.3 22.2-2 33.3-2.2-.2-4.4-.4-6.7-.5.6-11.1 1.3-22.2 2-33.3zm4-66.6c2.2.2 4.4.4 6.7.5-.7 11.1-1.3 22.2-2 33.3-2.2-.2-4.5-.4-6.7-.5.7-11.1 1.3-22.2 2-33.3z"/></svg>
